<?xml version="1.0" standalone="no"?><!DOCTYPE svg PUBLIC "-//W3C//DTD SVG 1.1//EN" "http://www.w3.org/Graphics/SVG/1.1/DTD/svg11.dtd"><svg t="1592984650712" class="icon" viewBox="0 0 1024 1024" version="1.1" xmlns="http://www.w3.org/2000/svg" p-id="1301" xmlns:xlink="http://www.w3.org/1999/xlink" width="200" height="200"><defs><style type="text/css"></style></defs><path d="M266.24 942.08H102.4a20.48 20.48 0 0 1-20.48-20.48V184.32a20.48 20.48 0 0 1 20.48-20.48h163.84a20.48 20.48 0 0 1 20.48 20.48v737.28a20.48 20.48 0 0 1-20.48 20.48z m-143.36-40.96h122.88V204.8H122.88z" fill="#666666" p-id="1302"></path><path d="M266.24 327.68H102.4a20.48 20.48 0 0 1 0-40.96h163.84a20.48 20.48 0 0 1 0 40.96zM552.96 942.08h-163.84a20.48 20.48 0 0 1-20.48-20.48V184.32a20.48 20.48 0 0 1 20.48-20.48h163.84a20.48 20.48 0 0 1 20.48 20.48v737.28a20.48 20.48 0 0 1-20.48 20.48z m-143.36-40.96h122.88V204.8h-122.88z" fill="#666666" p-id="1303"></path><path d="M552.96 327.68h-163.84a20.48 20.48 0 0 1 0-40.96h163.84a20.48 20.48 0 0 1 0 40.96zM806.2976 950.0672a20.48 20.48 0 0 1-20.48-14.5408L573.44 229.5808a20.48 20.48 0 0 1 13.9264-24.7808l156.8768-47.3088a20.48 20.48 0 0 1 25.6 13.7216L983.04 876.3392a20.48 20.48 0 0 1-13.9264 24.7808l-156.8768 47.3088a20.48 20.48 0 0 1-5.9392 1.6384z m-187.392-712.704L819.2 903.9872l117.5552-35.4304L737.28 201.9328z" fill="#666666" p-id="1304"></path><path d="M770.8672 832.3072a20.48 20.48 0 0 1-5.9392-40.96L921.6 745.0624a20.48 20.48 0 0 1 11.8784 39.1168l-156.8768 47.3088a20.48 20.48 0 0 1-5.7344 0.8192z" fill="#666666" p-id="1305"></path></svg>